<?xml version="1.0" encoding="UTF-8" standalone="no"?>
<!-- Created with Inkscape (http://www.inkscape.org/) -->

<svg
   xmlns:dc="http://purl.org/dc/elements/1.1/"
   xmlns:cc="http://creativecommons.org/ns#"
   xmlns:rdf="http://www.w3.org/1999/02/22-rdf-syntax-ns#"
   xmlns:svg="http://www.w3.org/2000/svg"
   xmlns="http://www.w3.org/2000/svg"
   xmlns:sodipodi="http://sodipodi.sourceforge.net/DTD/sodipodi-0.dtd"
   xmlns:inkscape="http://www.inkscape.org/namespaces/inkscape"
   width="113.28619"
   height="121.65268"
   viewBox="0 0 113.28619 121.65268"
   version="1.1"
   id="SVGRoot"
   inkscape:version="0.92.2 (5c3e80d, 2017-08-06)"
   sodipodi:docname="patient_icon.svg">
  <sodipodi:namedview
     id="base"
     pagecolor="#ffffff"
     bordercolor="#666666"
     borderopacity="1.0"
     inkscape:pageopacity="0.0"
     inkscape:pageshadow="2"
     inkscape:zoom="1.831112"
     inkscape:cx="-23.073525"
     inkscape:cy="94.745162"
     inkscape:document-units="px"
     inkscape:current-layer="layer1"
     showgrid="false"
     inkscape:window-width="1920"
     inkscape:window-height="1012"
     inkscape:window-x="0"
     inkscape:window-y="32"
     inkscape:window-maximized="1"
     showguides="true"
     inkscape:guide-bbox="true"
     fit-margin-top="0"
     fit-margin-left="0"
     fit-margin-right="0"
     fit-margin-bottom="0">
    <inkscape:grid
       type="axonomgrid"
       id="grid812"
       units="mm"
       empspacing="5"
       originx="-1515.7811"
       originy="-1285.8822" />
    <sodipodi:guide
       position="56.061515,13.449881"
       orientation="1,0"
       id="guide972"
       inkscape:locked="false" />
    <sodipodi:guide
       position="56.061515,13.449881"
       orientation="0,1"
       id="guide974"
       inkscape:locked="false" />
  </sodipodi:namedview>
  <defs
     id="defs831">
    <inkscape:perspective
       sodipodi:type="inkscape:persp3d"
       inkscape:vp_x="-838.48897 : 484.10183 : 0"
       inkscape:vp_y="0 : 916.31423 : 0"
       inkscape:vp_z="838.48897 : 484.10183 : 0"
       inkscape:persp3d-origin="1919.1716 : -11.372732 : 1"
       id="perspective4594" />
    <inkscape:perspective
       sodipodi:type="inkscape:persp3d"
       inkscape:vp_x="-838.48897 : 484.10183 : 0"
       inkscape:vp_y="0 : 916.31423 : 0"
       inkscape:vp_z="838.48897 : 484.10183 : 0"
       inkscape:persp3d-origin="1919.883 : 4.8028085 : 1"
       id="perspective814" />
    <filter
       style="color-interpolation-filters:sRGB"
       inkscape:label="Drop Shadow"
       id="filter1385">
      <feFlood
         flood-opacity="0.498039"
         flood-color="rgb(0,0,0)"
         result="flood"
         id="feFlood1375" />
      <feComposite
         in="flood"
         in2="SourceGraphic"
         operator="in"
         result="composite1"
         id="feComposite1377" />
      <feGaussianBlur
         in="composite1"
         stdDeviation="1.1"
         result="blur"
         id="feGaussianBlur1379" />
      <feOffset
         dx="8.2"
         dy="11.5"
         result="offset"
         id="feOffset1381" />
      <feComposite
         in="SourceGraphic"
         in2="offset"
         operator="over"
         result="composite2"
         id="feComposite1383" />
    </filter>
    <filter
       style="color-interpolation-filters:sRGB"
       inkscape:label="Drop Shadow"
       id="filter1889">
      <feFlood
         flood-opacity="0.498039"
         flood-color="rgb(0,0,0)"
         result="flood"
         id="feFlood1879" />
      <feComposite
         in="flood"
         in2="SourceGraphic"
         operator="in"
         result="composite1"
         id="feComposite1881" />
      <feGaussianBlur
         in="composite1"
         stdDeviation="6.6"
         result="blur"
         id="feGaussianBlur1883" />
      <feOffset
         dx="10.1"
         dy="7.1"
         result="offset"
         id="feOffset1885" />
      <feComposite
         in="offset"
         in2="offset"
         operator="atop"
         result="fbSourceGraphic"
         id="feComposite1887" />
      <feColorMatrix
         result="fbSourceGraphicAlpha"
         in="fbSourceGraphic"
         values="0 0 0 -1 0 0 0 0 -1 0 0 0 0 -1 0 0 0 0 1 0"
         id="feColorMatrix1891" />
      <feFlood
         id="feFlood1893"
         flood-opacity="0.498039"
         flood-color="rgb(0,0,0)"
         result="flood"
         in="fbSourceGraphic" />
      <feComposite
         in2="fbSourceGraphic"
         id="feComposite1895"
         in="flood"
         operator="in"
         result="composite1" />
      <feGaussianBlur
         id="feGaussianBlur1897"
         in="composite1"
         stdDeviation="6.6"
         result="blur" />
      <feOffset
         id="feOffset1899"
         dx="10.1"
         dy="7.1"
         result="offset" />
      <feComposite
         in2="offset"
         id="feComposite1901"
         in="offset"
         operator="atop"
         result="composite2" />
    </filter>
    <filter
       style="color-interpolation-filters:sRGB"
       inkscape:label="Drop Shadow"
       id="filter2046"
       width="1.25"
       height="1.4400001">
      <feFlood
         flood-opacity="0.498039"
         flood-color="rgb(0,0,0)"
         result="flood"
         id="feFlood2036" />
      <feComposite
         in="flood"
         in2="SourceGraphic"
         operator="in"
         result="composite1"
         id="feComposite2038" />
      <feGaussianBlur
         in="composite1"
         stdDeviation="5.5"
         result="blur"
         id="feGaussianBlur2040" />
      <feOffset
         dx="4.09836"
         dy="7.1"
         result="offset"
         id="feOffset2042" />
      <feComposite
         in="offset"
         in2="SourceGraphic"
         operator="out"
         result="composite2"
         id="feComposite2044" />
    </filter>
    <filter
       style="color-interpolation-filters:sRGB"
       inkscape:label="Drop Shadow"
       id="filter2804">
      <feFlood
         flood-opacity="0.498039"
         flood-color="rgb(0,0,0)"
         result="flood"
         id="feFlood2794" />
      <feComposite
         in="flood"
         in2="SourceGraphic"
         operator="in"
         result="composite1"
         id="feComposite2796" />
      <feGaussianBlur
         in="composite1"
         stdDeviation="6.5"
         result="blur"
         id="feGaussianBlur2798" />
      <feOffset
         dx="3"
         dy="7.37705"
         result="offset"
         id="feOffset2800" />
      <feComposite
         in="offset"
         in2="SourceGraphic"
         operator="out"
         result="composite2"
         id="feComposite2802" />
    </filter>
    <filter
       style="color-interpolation-filters:sRGB"
       inkscape:label="Drop Shadow"
       id="filter3166"
       width="1.5"
       height="1.6">
      <feFlood
         flood-opacity="0.498039"
         flood-color="rgb(0,0,0)"
         result="flood"
         id="feFlood3156" />
      <feComposite
         in="flood"
         in2="SourceGraphic"
         operator="in"
         result="composite1"
         id="feComposite3158" />
      <feGaussianBlur
         in="composite1"
         stdDeviation="10.4"
         result="blur"
         id="feGaussianBlur3160" />
      <feOffset
         dx="9.28962"
         dy="6"
         result="offset"
         id="feOffset3162" />
      <feComposite
         in="SourceGraphic"
         in2="offset"
         operator="over"
         result="composite2"
         id="feComposite3164" />
    </filter>
    <filter
       style="color-interpolation-filters:sRGB"
       inkscape:label="Blur"
       id="filter4228"
       x="-0.15000001"
       y="-0.1"
       width="1.5"
       height="1.6">
      <feGaussianBlur
         stdDeviation="4.38 3.56"
         result="blur"
         id="feGaussianBlur4226" />
    </filter>
  </defs>
  <metadata
     id="metadata834">
    <rdf:RDF>
      <cc:Work
         rdf:about="">
        <dc:format>image/svg+xml</dc:format>
        <dc:type
           rdf:resource="http://purl.org/dc/dcmitype/StillImage" />
        <dc:title></dc:title>
      </cc:Work>
    </rdf:RDF>
  </metadata>
  <g
     id="layer1"
     inkscape:groupmode="layer"
     inkscape:label="Layer 1"
     transform="translate(-505.26031,-529.71991)">
    <g
       sodipodi:type="inkscape:box3d"
       id="g833"
       style="opacity:0.478;vector-effect:none;fill:#aa0000;fill-opacity:1;fill-rule:nonzero;stroke:none;stroke-width:1.00199997;stroke-linecap:butt;stroke-linejoin:miter;stroke-miterlimit:4;stroke-dasharray:none;stroke-dashoffset:0;stroke-opacity:1;paint-order:stroke fill markers"
       inkscape:perspectiveID="#perspective814"
       inkscape:corner0="2.0073672 : -0.22249786 : 0 : 1"
       inkscape:corner7="1.7023844 : -0.57911497 : 0.19061429 : 1" />
    <g
       id="g951">
      <path
         inkscape:connector-curvature="0"
         id="path898"
         d="m 876.68221,232.14978 c 0,56.41702 0,56.41702 0,56.41702 l 43.1105,24.88987 v -56.41703 z"
         style="fill:#707b80;fill-opacity:1;stroke:none;stroke-width:0.87805915px;stroke-linecap:butt;stroke-linejoin:miter;stroke-opacity:1" />
      <path
         style="fill:#525a5e;fill-opacity:1;stroke:none;stroke-width:0.87805915px;stroke-linecap:butt;stroke-linejoin:miter;stroke-opacity:1"
         d="m 962.90322,232.14978 c 0,56.41702 0,56.41702 0,56.41702 l -43.11051,24.88987 v -56.41703 z"
         id="path900"
         inkscape:connector-curvature="0" />
      <path
         inkscape:connector-curvature="0"
         id="path902"
         d="m 876.68221,232.14978 43.1105,-24.88986 43.11051,24.88986 -43.11051,24.88986 z"
         style="fill:#a5acaf;fill-opacity:1;stroke:none;stroke-width:0.87805915px;stroke-linecap:butt;stroke-linejoin:miter;stroke-opacity:1" />
    </g>
    <g
       transform="matrix(2,1.1547005,0,2,871.79271,237.74386)"
       id="g1019"
       style="fill:#ffffff">
      <path
         style="fill:none"
         inkscape:connector-curvature="0"
         d="M 0,0 H 24 V 24 H 0 Z"
         id="path1015" />
      <path
         style="fill:#ff0300;fill-opacity:1"
         inkscape:connector-curvature="0"
         d="m 4.0875,8.5792468 c 0,-1.71 1.39,-3.1 3.1,-3.1 h 4 v -1.9 h -4 c -2.76,0 -5,2.24 -5,5 0,2.7600002 2.24,5.0000002 5,5.0000002 h 4 v -1.9 h -4 c -1.71,0 -3.1,-1.39 -3.1,-3.1000002 z m 4.1,1 h 8 v -2 h -8 z m 9,-6 h -4 v 1.9 h 4 c 1.71,0 3.1,1.39 3.1,3.1 0,1.7100002 -1.39,3.1000002 -3.1,3.1000002 h -4 v 1.9 h 4 c 2.76,0 5,-2.24 5,-5.0000002 0,-2.76 -2.24,-5 -5,-5 z"
         id="path1017" />
    </g>
    <path
       style="fill:none;stroke-width:2"
       inkscape:connector-curvature="0"
       d="m 802.43595,298.90888 48,27.71281 v 48 l -48,-27.71281 z"
       id="path991" />
    <path
       inkscape:connector-curvature="0"
       id="path1072"
       d="m 865.7678,340.05456 c 0,56.41702 0,56.41702 0,56.41702 l 43.1106,24.88987 v -56.41703 z"
       style="fill:#f6e980;fill-opacity:1;stroke:none;stroke-width:0.87805915px;stroke-linecap:butt;stroke-linejoin:miter;stroke-opacity:1" />
    <path
       style="fill:#f2e148;fill-opacity:1;stroke:none;stroke-width:0.87805915px;stroke-linecap:butt;stroke-linejoin:miter;stroke-opacity:1"
       d="m 951.9889,340.05456 c 0,56.41702 0,56.41702 0,56.41702 l -43.1105,24.88987 v -56.41703 z"
       id="path1074"
       inkscape:connector-curvature="0" />
    <path
       inkscape:connector-curvature="0"
       id="path1076"
       d="m 865.7678,340.05456 43.1106,-24.88986 43.1105,24.88986 -43.1105,24.88986 z"
       style="fill:#fefcf0;fill-opacity:1;stroke:none;stroke-width:0.87805915px;stroke-linecap:butt;stroke-linejoin:miter;stroke-opacity:1" />
    <g
       style="fill:#000000"
       id="g1082"
       transform="matrix(1.8615477,1.074765,0,1.8615477,864.2437,341.71976)">
      <path
         id="path1078"
         d="M 0,0 H 24 V 24 H 0 Z"
         inkscape:connector-curvature="0"
         style="fill:none" />
      <path
         id="path1080"
         d="M 3.9,12 C 3.9,10.29 5.29,8.9 7,8.9 h 4 V 7 H 7 c -2.76,0 -5,2.24 -5,5 0,2.76 2.24,5 5,5 h 4 V 15.1 H 7 C 5.29,15.1 3.9,13.71 3.9,12 Z M 8,13 h 8 V 11 H 8 Z m 9,-6 h -4 v 1.9 h 4 c 1.71,0 3.1,1.39 3.1,3.1 0,1.71 -1.39,3.1 -3.1,3.1 H 13 V 17 h 4 c 2.76,0 5,-2.24 5,-5 0,-2.76 -2.24,-5 -5,-5 z"
         inkscape:connector-curvature="0" />
    </g>
    <path
       style="fill:#f2ca4e;fill-opacity:1;stroke:none;stroke-width:0.87805915px;stroke-linecap:butt;stroke-linejoin:miter;stroke-opacity:1"
       d="m 979.2678,429.55456 c 0,56.41702 0,56.41702 0,56.41702 l 43.1106,24.88987 v -56.41703 z"
       id="path1098"
       inkscape:connector-curvature="0" />
    <path
       inkscape:connector-curvature="0"
       id="path1100"
       d="m 1065.4889,429.55456 c 0,56.41702 0,56.41702 0,56.41702 l -43.1105,24.88987 v -56.41703 z"
       style="fill:#eeba18;fill-opacity:1;stroke:none;stroke-width:0.87805915px;stroke-linecap:butt;stroke-linejoin:miter;stroke-opacity:1" />
    <path
       style="fill:#faebbe;fill-opacity:1;stroke:none;stroke-width:0.87805915px;stroke-linecap:butt;stroke-linejoin:miter;stroke-opacity:1"
       d="m 979.2678,429.55456 43.1106,-24.88986 43.1105,24.88986 -43.1105,24.88986 z"
       id="path1102"
       inkscape:connector-curvature="0" />
    <g
       transform="matrix(1.8615477,1.074765,0,1.8615477,977.7437,431.21976)"
       id="g1108"
       style="fill:#000000">
      <path
         style="fill:none"
         inkscape:connector-curvature="0"
         d="M 0,0 H 24 V 24 H 0 Z"
         id="path1104" />
      <path
         inkscape:connector-curvature="0"
         d="M 3.9,12 C 3.9,10.29 5.29,8.9 7,8.9 h 4 V 7 H 7 c -2.76,0 -5,2.24 -5,5 0,2.76 2.24,5 5,5 h 4 V 15.1 H 7 C 5.29,15.1 3.9,13.71 3.9,12 Z M 8,13 h 8 V 11 H 8 Z m 9,-6 h -4 v 1.9 h 4 c 1.71,0 3.1,1.39 3.1,3.1 0,1.71 -1.39,3.1 -3.1,3.1 H 13 V 17 h 4 c 2.76,0 5,-2.24 5,-5 0,-2.76 -2.24,-5 -5,-5 z"
         id="path1106" />
    </g>
    <path
       inkscape:connector-curvature="0"
       id="path1110"
       d="m 837.7678,464.05456 c 0,56.41702 0,56.41702 0,56.41702 l 43.1106,24.88987 v -56.41703 z"
       style="fill:#f57b73;fill-opacity:1;stroke:none;stroke-width:0.87805915px;stroke-linecap:butt;stroke-linejoin:miter;stroke-opacity:1" />
    <path
       style="fill:#f0463a;fill-opacity:1;stroke:none;stroke-width:0.87805915px;stroke-linecap:butt;stroke-linejoin:miter;stroke-opacity:1"
       d="m 923.9889,464.05456 c 0,56.41702 0,56.41702 0,56.41702 l -43.1105,24.88987 v -56.41703 z"
       id="path1112"
       inkscape:connector-curvature="0" />
    <path
       inkscape:connector-curvature="0"
       id="path1114"
       d="m 837.7678,464.05456 43.1106,-24.88986 43.1105,24.88986 -43.1105,24.88986 z"
       style="fill:#fde4e3;fill-opacity:1;stroke:none;stroke-width:0.87805915px;stroke-linecap:butt;stroke-linejoin:miter;stroke-opacity:1" />
    <g
       style="fill:#000000"
       id="g1120"
       transform="matrix(1.8615477,1.074765,0,1.8615477,836.2437,465.71976)">
      <path
         id="path1116"
         d="M 0,0 H 24 V 24 H 0 Z"
         inkscape:connector-curvature="0"
         style="fill:none" />
      <path
         id="path1118"
         d="M 3.9,12 C 3.9,10.29 5.29,8.9 7,8.9 h 4 V 7 H 7 c -2.76,0 -5,2.24 -5,5 0,2.76 2.24,5 5,5 h 4 V 15.1 H 7 C 5.29,15.1 3.9,13.71 3.9,12 Z M 8,13 h 8 V 11 H 8 Z m 9,-6 h -4 v 1.9 h 4 c 1.71,0 3.1,1.39 3.1,3.1 0,1.71 -1.39,3.1 -3.1,3.1 H 13 V 17 h 4 c 2.76,0 5,-2.24 5,-5 0,-2.76 -2.24,-5 -5,-5 z"
         inkscape:connector-curvature="0" />
    </g>
    <path
       style="fill:#839da9;fill-opacity:1;stroke:none;stroke-width:0.87805915px;stroke-linecap:butt;stroke-linejoin:miter;stroke-opacity:1"
       d="m 1139.9839,264.11503 c 0,56.41702 0,56.41702 0,56.41702 l 43.1106,24.88987 v -56.41703 z"
       id="path1122"
       inkscape:connector-curvature="0" />
    <path
       inkscape:connector-curvature="0"
       id="path1124"
       d="m 1226.205,264.11503 c 0,56.41702 0,56.41702 0,56.41702 l -43.1105,24.88987 v -56.41703 z"
       style="fill:#607e8c;fill-opacity:1;stroke:none;stroke-width:0.87805915px;stroke-linecap:butt;stroke-linejoin:miter;stroke-opacity:1" />
    <path
       style="fill:#cad5da;fill-opacity:1;stroke:none;stroke-width:0.87805915px;stroke-linecap:butt;stroke-linejoin:miter;stroke-opacity:1"
       d="m 1139.9839,264.11503 43.1106,-24.88986 43.1105,24.88986 -43.1105,24.88986 z"
       id="path1126"
       inkscape:connector-curvature="0" />
    <g
       transform="matrix(1.8615477,1.074765,0,1.8615477,1138.4598,265.78023)"
       id="g1132"
       style="fill:#000000">
      <path
         style="fill:none"
         inkscape:connector-curvature="0"
         d="M 0,0 H 24 V 24 H 0 Z"
         id="path1128" />
      <path
         inkscape:connector-curvature="0"
         d="M 3.9,12 C 3.9,10.29 5.29,8.9 7,8.9 h 4 V 7 H 7 c -2.76,0 -5,2.24 -5,5 0,2.76 2.24,5 5,5 h 4 V 15.1 H 7 C 5.29,15.1 3.9,13.71 3.9,12 Z M 8,13 h 8 V 11 H 8 Z m 9,-6 h -4 v 1.9 h 4 c 1.71,0 3.1,1.39 3.1,3.1 0,1.71 -1.39,3.1 -3.1,3.1 H 13 V 17 h 4 c 2.76,0 5,-2.24 5,-5 0,-2.76 -2.24,-5 -5,-5 z"
         id="path1130" />
    </g>
    <path
       inkscape:connector-curvature="0"
       id="path1134"
       d="m 1124.5374,396.18261 c 0,56.41702 0,56.41702 0,56.41702 l 43.1106,24.88987 v -56.41703 z"
       style="fill:#75c378;fill-opacity:1;stroke:none;stroke-width:0.87805915px;stroke-linecap:butt;stroke-linejoin:miter;stroke-opacity:1" />
    <path
       style="fill:#4cb050;fill-opacity:1;stroke:none;stroke-width:0.87805915px;stroke-linecap:butt;stroke-linejoin:miter;stroke-opacity:1"
       d="m 1210.7585,396.18261 c 0,56.41702 0,56.41702 0,56.41702 l -43.1105,24.88987 v -56.41703 z"
       id="path1136"
       inkscape:connector-curvature="0" />
    <path
       inkscape:connector-curvature="0"
       id="path1138"
       d="m 1124.5374,396.18261 43.1106,-24.88986 43.1105,24.88986 -43.1105,24.88986 z"
       style="fill:#c9e7ca;fill-opacity:1;stroke:none;stroke-width:0.87805915px;stroke-linecap:butt;stroke-linejoin:miter;stroke-opacity:1" />
    <g
       style="fill:#000000"
       id="g1144"
       transform="matrix(1.8615477,1.074765,0,1.8615477,1123.0133,397.84781)">
      <path
         id="path1140"
         d="M 0,0 H 24 V 24 H 0 Z"
         inkscape:connector-curvature="0"
         style="fill:none" />
      <path
         id="path1142"
         d="M 3.9,12 C 3.9,10.29 5.29,8.9 7,8.9 h 4 V 7 H 7 c -2.76,0 -5,2.24 -5,5 0,2.76 2.24,5 5,5 h 4 V 15.1 H 7 C 5.29,15.1 3.9,13.71 3.9,12 Z M 8,13 h 8 V 11 H 8 Z m 9,-6 h -4 v 1.9 h 4 c 1.71,0 3.1,1.39 3.1,3.1 0,1.71 -1.39,3.1 -3.1,3.1 H 13 V 17 h 4 c 2.76,0 5,-2.24 5,-5 0,-2.76 -2.24,-5 -5,-5 z"
         inkscape:connector-curvature="0" />
    </g>
    <g
       id="g1176"
       transform="translate(-17.475723,3.2767012)">
      <path
         inkscape:connector-curvature="0"
         id="path1146"
         d="m 1083.6042,522.84391 c 0,56.41702 0,56.41702 0,56.41702 l 43.1106,24.88987 v -56.41703 z"
         style="fill:#f0f0f0;fill-opacity:1;stroke:none;stroke-width:0.87805915px;stroke-linecap:butt;stroke-linejoin:miter;stroke-opacity:1" />
      <path
         style="fill:#d9d9d9;fill-opacity:1;stroke:none;stroke-width:0.87805915px;stroke-linecap:butt;stroke-linejoin:miter;stroke-opacity:1"
         d="m 1169.8253,522.84391 c 0,56.41702 0,56.41702 0,56.41702 l -43.1105,24.88987 v -56.41703 z"
         id="path1148"
         inkscape:connector-curvature="0" />
      <path
         inkscape:connector-curvature="0"
         id="path1150"
         d="m 1083.6042,522.84391 43.1106,-24.88986 43.1105,24.88986 -43.1105,24.88986 z"
         style="fill:#fcfcfc;fill-opacity:1;stroke:none;stroke-width:0.87805915px;stroke-linecap:butt;stroke-linejoin:miter;stroke-opacity:1" />
      <g
         style="fill:#000000"
         id="g1156"
         transform="matrix(1.8615477,1.074765,0,1.8615477,1082.0801,524.50911)">
        <path
           id="path1152"
           d="M 0,0 H 24 V 24 H 0 Z"
           inkscape:connector-curvature="0"
           style="fill:none" />
        <path
           id="path1154"
           d="M 3.9,12 C 3.9,10.29 5.29,8.9 7,8.9 h 4 V 7 H 7 c -2.76,0 -5,2.24 -5,5 0,2.76 2.24,5 5,5 h 4 V 15.1 H 7 C 5.29,15.1 3.9,13.71 3.9,12 Z M 8,13 h 8 V 11 H 8 Z m 9,-6 h -4 v 1.9 h 4 c 1.71,0 3.1,1.39 3.1,3.1 0,1.71 -1.39,3.1 -3.1,3.1 H 13 V 17 h 4 c 2.76,0 5,-2.24 5,-5 0,-2.76 -2.24,-5 -5,-5 z"
           inkscape:connector-curvature="0" />
      </g>
    </g>
    <g
       id="g3187">
      <g
         id="g2653">
        <path
           style="fill:#6373c9;fill-opacity:1;stroke:none;stroke-width:0.87805915px;stroke-linecap:butt;stroke-linejoin:miter;stroke-opacity:1"
           d="m 936.6254,573.72471 c 0,56.41702 0,56.41702 0,56.41702 l 43.1106,24.88987 v -56.41703 z"
           id="path1158"
           inkscape:connector-curvature="0" />
        <path
           inkscape:connector-curvature="0"
           id="path1160"
           d="m 1022.8465,573.72471 c 0,56.41702 0,56.41702 0,56.41702 L 979.736,655.0316 v -56.41703 z"
           style="fill:#3f51b5;fill-opacity:1;stroke:none;stroke-width:0.87805915px;stroke-linecap:butt;stroke-linejoin:miter;stroke-opacity:1" />
        <path
           style="fill:#bcc3e8;fill-opacity:1;stroke:none;stroke-width:0.87805915px;stroke-linecap:butt;stroke-linejoin:miter;stroke-opacity:1"
           d="m 936.6254,573.72471 43.1106,-24.88986 43.1105,24.88986 -43.1105,24.88986 z"
           id="path1162"
           inkscape:connector-curvature="0" />
      </g>
      <g
         style="fill:#000000"
         id="g1168"
         transform="matrix(1.8615477,1.074765,0,1.8615477,935.1013,575.38991)">
        <path
           id="path1164"
           d="M 0,0 H 24 V 24 H 0 Z"
           inkscape:connector-curvature="0"
           style="fill:none" />
        <path
           id="path1166"
           d="M 3.9,12 C 3.9,10.29 5.29,8.9 7,8.9 h 4 V 7 H 7 c -2.76,0 -5,2.24 -5,5 0,2.76 2.24,5 5,5 h 4 V 15.1 H 7 C 5.29,15.1 3.9,13.71 3.9,12 Z M 8,13 h 8 V 11 H 8 Z m 9,-6 h -4 v 1.9 h 4 c 1.71,0 3.1,1.39 3.1,3.1 0,1.71 -1.39,3.1 -3.1,3.1 H 13 V 17 h 4 c 2.76,0 5,-2.24 5,-5 0,-2.76 -2.24,-5 -5,-5 z"
           inkscape:connector-curvature="0" />
      </g>
    </g>
    <g
       id="g966">
      <path
         inkscape:connector-curvature="0"
         id="path3127"
         d="m 1244.2478,457.19629 c 0,56.41702 0,56.41702 0,56.41702 l 43.1106,24.88987 v -56.41703 z"
         style="fill:#df3131;fill-opacity:1;stroke:none;stroke-width:0.87805915px;stroke-linecap:butt;stroke-linejoin:miter;stroke-opacity:1" />
      <path
         style="fill:#b71c1c;fill-opacity:1;stroke:none;stroke-width:0.87805915px;stroke-linecap:butt;stroke-linejoin:miter;stroke-opacity:1"
         d="m 1330.4689,457.19629 c 0,56.41702 0,56.41702 0,56.41702 l -43.1105,24.88987 v -56.41703 z"
         id="path3129"
         inkscape:connector-curvature="0" />
      <path
         inkscape:connector-curvature="0"
         id="path3131"
         d="m 1244.2478,457.19629 43.1106,-24.88986 43.1105,24.88986 -43.1105,24.88986 z"
         style="fill:#f09898;fill-opacity:1;stroke:none;stroke-width:0.87805915px;stroke-linecap:butt;stroke-linejoin:miter;stroke-opacity:1" />
      <g
         style="fill:#000000"
         id="g3137"
         transform="matrix(1.8615477,1.074765,0,1.8615477,1242.7237,458.86149)">
        <path
           id="path3133"
           d="M 0,0 H 24 V 24 H 0 Z"
           inkscape:connector-curvature="0"
           style="fill:none" />
        <path
           id="path3135"
           d="M 3.9,12 C 3.9,10.29 5.29,8.9 7,8.9 h 4 V 7 H 7 c -2.76,0 -5,2.24 -5,5 0,2.76 2.24,5 5,5 h 4 V 15.1 H 7 C 5.29,15.1 3.9,13.71 3.9,12 Z M 8,13 h 8 V 11 H 8 Z m 9,-6 h -4 v 1.9 h 4 c 1.71,0 3.1,1.39 3.1,3.1 0,1.71 -1.39,3.1 -3.1,3.1 H 13 V 17 h 4 c 2.76,0 5,-2.24 5,-5 0,-2.76 -2.24,-5 -5,-5 z"
           inkscape:connector-curvature="0" />
      </g>
    </g>
    <path
       inkscape:connector-curvature="0"
       id="path3147"
       d="m 1258.922,308.13756 c 0,56.41702 0,56.41702 0,56.41702 l 43.1106,24.88987 v -56.41703 z"
       style="fill:#646464;fill-opacity:1;stroke:none;stroke-width:0.87805915px;stroke-linecap:butt;stroke-linejoin:miter;stroke-opacity:1" />
    <path
       style="fill:#424242;fill-opacity:1;stroke:none;stroke-width:0.87805915px;stroke-linecap:butt;stroke-linejoin:miter;stroke-opacity:1"
       d="m 1345.1431,308.13756 c 0,56.41702 0,56.41702 0,56.41702 l -43.1105,24.88987 v -56.41703 z"
       id="path3149"
       inkscape:connector-curvature="0" />
    <path
       inkscape:connector-curvature="0"
       id="path3151"
       d="m 1258.922,308.13756 43.1106,-24.88986 43.1105,24.88986 -43.1105,24.88986 z"
       style="fill:#a0a0a0;fill-opacity:1;stroke:none;stroke-width:0.87805915px;stroke-linecap:butt;stroke-linejoin:miter;stroke-opacity:1" />
    <g
       style="fill:#000000"
       id="g3157"
       transform="matrix(1.8615477,1.074765,0,1.8615477,1257.3979,309.80276)">
      <path
         id="path3153"
         d="M 0,0 H 24 V 24 H 0 Z"
         inkscape:connector-curvature="0"
         style="fill:none" />
      <path
         id="path3155"
         d="M 3.9,12 C 3.9,10.29 5.29,8.9 7,8.9 h 4 V 7 H 7 c -2.76,0 -5,2.24 -5,5 0,2.76 2.24,5 5,5 h 4 V 15.1 H 7 C 5.29,15.1 3.9,13.71 3.9,12 Z M 8,13 h 8 V 11 H 8 Z m 9,-6 h -4 v 1.9 h 4 c 1.71,0 3.1,1.39 3.1,3.1 0,1.71 -1.39,3.1 -3.1,3.1 H 13 V 17 h 4 c 2.76,0 5,-2.24 5,-5 0,-2.76 -2.24,-5 -5,-5 z"
         inkscape:connector-curvature="0" />
    </g>
    <path
       style="fill:#526a76;fill-opacity:1;stroke:none;stroke-width:0.87805915px;stroke-linecap:butt;stroke-linejoin:miter;stroke-opacity:1"
       d="m 1216.4441,598.53177 c 0,56.41702 0,56.41702 0,56.41702 l 43.1106,24.88987 v -56.41703 z"
       id="path3159"
       inkscape:connector-curvature="0" />
    <path
       inkscape:connector-curvature="0"
       id="path3161"
       d="m 1302.6652,598.53177 c 0,56.41702 0,56.41702 0,56.41702 l -43.1105,24.88987 v -56.41703 z"
       style="fill:#37474f;fill-opacity:1;stroke:none;stroke-width:0.87805915px;stroke-linecap:butt;stroke-linejoin:miter;stroke-opacity:1" />
    <path
       style="fill:#8fa5b1;fill-opacity:1;stroke:none;stroke-width:0.87805915px;stroke-linecap:butt;stroke-linejoin:miter;stroke-opacity:1"
       d="m 1216.4441,598.53177 43.1106,-24.88986 43.1105,24.88986 -43.1105,24.88986 z"
       id="path3163"
       inkscape:connector-curvature="0" />
    <g
       transform="matrix(1.8615477,1.074765,0,1.8615477,1214.92,600.19697)"
       id="g3169"
       style="fill:#000000">
      <path
         style="fill:none"
         inkscape:connector-curvature="0"
         d="M 0,0 H 24 V 24 H 0 Z"
         id="path3165" />
      <path
         inkscape:connector-curvature="0"
         d="M 3.9,12 C 3.9,10.29 5.29,8.9 7,8.9 h 4 V 7 H 7 c -2.76,0 -5,2.24 -5,5 0,2.76 2.24,5 5,5 h 4 V 15.1 H 7 C 5.29,15.1 3.9,13.71 3.9,12 Z M 8,13 h 8 V 11 H 8 Z m 9,-6 h -4 v 1.9 h 4 c 1.71,0 3.1,1.39 3.1,3.1 0,1.71 -1.39,3.1 -3.1,3.1 H 13 V 17 h 4 c 2.76,0 5,-2.24 5,-5 0,-2.76 -2.24,-5 -5,-5 z"
         id="path3167" />
    </g>
    <g
       id="g3245"
       transform="translate(12.3572,-6.9509252)">
      <path
         style="fill:#ffb13d;fill-opacity:1;stroke:none;stroke-width:0.87805915px;stroke-linecap:butt;stroke-linejoin:miter;stroke-opacity:1"
         d="m 1043.9786,670.26534 c 0,56.41702 0,56.41702 0,56.41702 l 43.1106,24.88987 V 695.1552 Z"
         id="path3213"
         inkscape:connector-curvature="0" />
      <path
         inkscape:connector-curvature="0"
         id="path3215"
         d="m 1130.1997,670.26534 c 0,56.41702 0,56.41702 0,56.41702 l -43.1105,24.88987 V 695.1552 Z"
         style="fill:#ff9800;fill-opacity:1;stroke:none;stroke-width:0.87805915px;stroke-linecap:butt;stroke-linejoin:miter;stroke-opacity:1" />
      <path
         style="fill:#ffe1b5;fill-opacity:1;stroke:none;stroke-width:0.87805915px;stroke-linecap:butt;stroke-linejoin:miter;stroke-opacity:1"
         d="m 1043.9786,670.26534 43.1106,-24.88986 43.1105,24.88986 -43.1105,24.88986 z"
         id="path3217"
         inkscape:connector-curvature="0" />
      <g
         transform="matrix(1.8615477,1.074765,0,1.8615477,1042.4545,671.93054)"
         id="g3225"
         style="fill:#000000">
        <path
           style="fill:none"
           inkscape:connector-curvature="0"
           d="M 0,0 H 24 V 24 H 0 Z"
           id="path3221" />
        <path
           inkscape:connector-curvature="0"
           d="M 3.9,12 C 3.9,10.29 5.29,8.9 7,8.9 h 4 V 7 H 7 c -2.76,0 -5,2.24 -5,5 0,2.76 2.24,5 5,5 h 4 V 15.1 H 7 C 5.29,15.1 3.9,13.71 3.9,12 Z M 8,13 h 8 V 11 H 8 Z m 9,-6 h -4 v 1.9 h 4 c 1.71,0 3.1,1.39 3.1,3.1 0,1.71 -1.39,3.1 -3.1,3.1 H 13 V 17 h 4 c 2.76,0 5,-2.24 5,-5 0,-2.76 -2.24,-5 -5,-5 z"
           id="path3223" />
      </g>
    </g>
    <path
       transform="matrix(1.1559659,0,0,1.3064225,73.296074,-364.33478)"
       style="fill:#999999;fill-opacity:1;stroke:none;stroke-width:0.87805915px;stroke-linecap:butt;stroke-linejoin:miter;stroke-opacity:1;filter:url(#filter4228)"
       d="m 380.29191,748.82237 43.1106,-24.88986 43.1105,24.88986 -43.1105,24.88986 z"
       id="path3168"
       inkscape:connector-curvature="0" />
    <g
       id="g989"
       transform="translate(-128.97828,8.3901496e-6)">
      <path
         style="fill:#df3131;fill-opacity:1;stroke:none;stroke-width:0.87805915px;stroke-linecap:butt;stroke-linejoin:miter;stroke-opacity:1"
         d="m 518.21124,556.61581 c 0,56.41702 0,56.41702 0,56.41702 l 43.1106,24.88987 v -56.41703 z"
         id="path968"
         inkscape:connector-curvature="0" />
      <path
         inkscape:connector-curvature="0"
         id="path970"
         d="m 604.43234,556.61581 c 0,56.41702 0,56.41702 0,56.41702 l -43.1105,24.88987 v -56.41703 z"
         style="fill:#b71c1c;fill-opacity:1;stroke:none;stroke-width:0.87805915px;stroke-linecap:butt;stroke-linejoin:miter;stroke-opacity:1" />
      <path
         style="fill:#f09898;fill-opacity:1;stroke:none;stroke-width:0.87805915px;stroke-linecap:butt;stroke-linejoin:miter;stroke-opacity:1"
         d="m 518.21124,556.61581 43.1106,-24.88986 43.1105,24.88986 -43.1105,24.88986 z"
         id="path972"
         inkscape:connector-curvature="0" />
      <g
         transform="matrix(2,1.1547005,0,2,515.5063,554.33898)"
         id="g5164"
         style="fill:#ffffff">
        <path
           style="fill:none"
           inkscape:connector-curvature="0"
           d="M 0,0 H 24 V 24 H 0 Z"
           id="path5150" />
        <path
           inkscape:connector-curvature="0"
           d="M 19,3 H 5 C 3.9,3 3.01,3.9 3.01,5 L 3,19 c 0,1.1 0.9,2 2,2 h 14 c 1.1,0 2,-0.9 2,-2 V 5 C 21,3.9 20.1,3 19,3 Z m -1,11 h -4 v 4 H 10 V 14 H 6 v -4 h 4 V 6 h 4 v 4 h 4 z"
           id="path5152" />
      </g>
    </g>
    <rect
       style="opacity:0.478;vector-effect:none;fill:none;fill-opacity:1;fill-rule:nonzero;stroke:none;stroke-width:0.89785343;stroke-linecap:butt;stroke-linejoin:miter;stroke-miterlimit:4;stroke-dasharray:none;stroke-dashoffset:0;stroke-opacity:1;paint-order:stroke fill markers"
       id="rect973"
       width="113.28619"
       height="121.65268"
       x="505.26031"
       y="529.71991"
       inkscape:export-filename="/home/richbl/rect973.png"
       inkscape:export-xdpi="1346.11"
       inkscape:export-ydpi="1346.11" />
    <g
       id="g1191">
      <g
         transform="translate(-224.64115,-2.837521)"
         id="g934">
        <path
           inkscape:connector-curvature="0"
           id="path928"
           d="m 936.6254,573.72471 c 0,56.41702 0,56.41702 0,56.41702 l 43.1106,24.88987 v -56.41703 z"
           style="fill:#6373c9;fill-opacity:1;stroke:none;stroke-width:0.87805915px;stroke-linecap:butt;stroke-linejoin:miter;stroke-opacity:1" />
        <path
           style="fill:#3f51b5;fill-opacity:1;stroke:none;stroke-width:0.87805915px;stroke-linecap:butt;stroke-linejoin:miter;stroke-opacity:1"
           d="m 1022.8465,573.72471 c 0,56.41702 0,56.41702 0,56.41702 L 979.736,655.0316 v -56.41703 z"
           id="path930"
           inkscape:connector-curvature="0" />
        <path
           inkscape:connector-curvature="0"
           id="path932"
           d="m 936.6254,573.72471 43.1106,-24.88986 43.1105,24.88986 -43.1105,24.88986 z"
           style="fill:#bcc3e8;fill-opacity:1;stroke:none;stroke-width:0.87805915px;stroke-linecap:butt;stroke-linejoin:miter;stroke-opacity:1" />
      </g>
      <g
         transform="matrix(2,1.1547005,0,2,709.96196,568.47383)"
         id="g5066"
         style="fill:#ffffff">
        <path
           inkscape:connector-curvature="0"
           d="m 12,12 c 2.21,0 4,-1.79 4,-4 C 16,5.79 14.21,4 12,4 9.79,4 8,5.79 8,8 c 0,2.21 1.79,4 4,4 z m 0,2 c -2.67,0 -8,1.34 -8,4 v 2 h 16 v -2 c 0,-2.66 -5.33,-4 -8,-4 z"
           id="path5052" />
        <path
           style="fill:none"
           inkscape:connector-curvature="0"
           d="M 0,0 H 24 V 24 H 0 Z"
           id="path5054" />
      </g>
    </g>
    <g
       id="g1200"
       transform="translate(-477.77096,255.52174)">
      <g
         transform="translate(-228.95751,-217.11588)"
         id="g3125">
        <path
           inkscape:connector-curvature="0"
           id="path3099"
           d="m 1224.9397,518.20996 c 0,56.41702 0,56.41702 0,56.41702 l 43.1106,24.88987 v -56.41703 z"
           style="fill:#5ab1f6;fill-opacity:1;stroke:none;stroke-width:0.87805915px;stroke-linecap:butt;stroke-linejoin:miter;stroke-opacity:1" />
        <path
           style="fill:#2196f3;fill-opacity:1;stroke:none;stroke-width:0.87805915px;stroke-linecap:butt;stroke-linejoin:miter;stroke-opacity:1"
           d="m 1311.1608,518.20996 c 0,56.41702 0,56.41702 0,56.41702 l -43.1105,24.88987 v -56.41703 z"
           id="path3101"
           inkscape:connector-curvature="0" />
        <path
           inkscape:connector-curvature="0"
           id="path3103"
           d="m 1224.9397,518.20996 43.1106,-24.88986 43.1105,24.88986 -43.1105,24.88986 z"
           style="fill:#cce7fc;fill-opacity:1;stroke:none;stroke-width:0.87805915px;stroke-linecap:butt;stroke-linejoin:miter;stroke-opacity:1" />
      </g>
      <g
         style="fill:#ffffff"
         id="g1172"
         transform="matrix(2,1.1547005,0,2,993.71641,298.14716)">
        <path
           id="path1168"
           d="m 12,12 c 2.21,0 4,-1.79 4,-4 C 16,5.79 14.21,4 12,4 9.79,4 8,5.79 8,8 c 0,2.21 1.79,4 4,4 z m 0,2 c -2.67,0 -8,1.34 -8,4 v 2 h 16 v -2 c 0,-2.66 -5.33,-4 -8,-4 z"
           inkscape:connector-curvature="0" />
        <path
           id="path1170"
           d="M 0,0 H 24 V 24 H 0 Z"
           inkscape:connector-curvature="0"
           style="fill:none" />
      </g>
    </g>
    <path
       id="path997"
       d="m 634.96669,244.24084 c 0,-3.42 2.78,-4.59497 6.2,-2.62043 l 8,4.6188 v -3.8 l -8,-4.6188 c -5.52,-3.18698 -10,-1.29351 -10,4.22649 0,5.52 4.48,12.58653 10,15.77351 l 8,4.6188 v -3.8 l -8,-4.6188 c -3.42,-1.97454 -6.2,-6.35957 -6.2,-9.77957 z m 8.2,6.73427 16,9.2376 v -4 l -16,-9.2376 z m 18,-1.6077 -8,-4.6188 v 3.8 l 8,4.6188 c 3.42,1.97454 6.2,6.35957 6.2,9.77957 0,3.42 -2.78,4.59497 -6.2,2.62043 l -8,-4.6188 v 3.8 l 8,4.6188 c 5.52,3.18698 10,1.2935 10,-4.2265 0,-5.52 -4.48,-12.58652 -10,-15.7735 z"
       inkscape:connector-curvature="0"
       style="fill:#a3a3a3;fill-opacity:1;stroke-width:2" />
    <g
       id="g1032"
       transform="translate(-281.85128,189.59415)">
      <g
         id="g1011"
         transform="translate(-387.03323,-273.21565)">
        <path
           inkscape:connector-curvature="0"
           id="path999"
           d="m 1083.6042,522.84391 c 0,56.41702 0,56.41702 0,56.41702 l 43.1106,24.88987 v -56.41703 z"
           style="fill:#f0f0f0;fill-opacity:1;stroke:none;stroke-width:0.87805915px;stroke-linecap:butt;stroke-linejoin:miter;stroke-opacity:1" />
        <path
           style="fill:#d9d9d9;fill-opacity:1;stroke:none;stroke-width:0.87805915px;stroke-linecap:butt;stroke-linejoin:miter;stroke-opacity:1"
           d="m 1169.8253,522.84391 c 0,56.41702 0,56.41702 0,56.41702 l -43.1105,24.88987 v -56.41703 z"
           id="path1001"
           inkscape:connector-curvature="0" />
        <path
           inkscape:connector-curvature="0"
           id="path1003"
           d="m 1083.6042,522.84391 43.1106,-24.88986 43.1105,24.88986 -43.1105,24.88986 z"
           style="fill:#fcfcfc;fill-opacity:1;stroke:none;stroke-width:0.87805915px;stroke-linecap:butt;stroke-linejoin:miter;stroke-opacity:1" />
      </g>
      <path
         id="path993"
         d="m 701.9062,276.28198 c 0,-3.42 2.78,-4.59496 6.2,-2.62043 l 8,4.61881 v -3.8 l -8,-4.61881 c -5.52,-3.18697 -10,-1.2935 -10,4.2265 0,5.52 4.48,12.58653 10,15.7735 l 8,4.61881 v -3.8 l -8,-4.61881 c -3.42,-1.97453 -6.2,-6.35957 -6.2,-9.77957 z m 8.2,6.73427 16,9.23761 v -4 l -16,-9.23761 z m 18,-1.60769 -8,-4.6188 v 3.8 l 8,4.6188 c 3.42,1.97454 6.2,6.35957 6.2,9.77957 0,3.42 -2.78,4.59497 -6.2,2.62043 l -8,-4.6188 v 3.8 l 8,4.6188 c 5.52,3.18697 10,1.2935 10,-4.2265 0,-5.52 -4.48,-12.58653 -10,-15.7735 z"
         inkscape:connector-curvature="0"
         style="fill:#8088c6;fill-opacity:1;stroke-width:2" />
    </g>
  </g>
</svg>
